<?xml version="1.0" encoding="utf-8"?>
<!-- Generator: Adobe Illustrator 16.0.0, SVG Export Plug-In . SVG Version: 6.00 Build 0)  -->
<!DOCTYPE svg PUBLIC "-//W3C//DTD SVG 1.1//EN" "http://www.w3.org/Graphics/SVG/1.1/DTD/svg11.dtd" [
	<!ENTITY ns_flows "http://ns.adobe.com/Flows/1.0/">
	<!ENTITY ns_extend "http://ns.adobe.com/Extensibility/1.0/">
	<!ENTITY ns_ai "http://ns.adobe.com/AdobeIllustrator/10.0/">
	<!ENTITY ns_graphs "http://ns.adobe.com/Graphs/1.0/">
	<!ENTITY ns_vars "http://ns.adobe.com/Variables/1.0/">
	<!ENTITY ns_imrep "http://ns.adobe.com/ImageReplacement/1.0/">
	<!ENTITY ns_sfw "http://ns.adobe.com/SaveForWeb/1.0/">
	<!ENTITY ns_custom "http://ns.adobe.com/GenericCustomNamespace/1.0/">
	<!ENTITY ns_adobe_xpath "http://ns.adobe.com/XPath/1.0/">
]>
<svg version="1.1" id="Layer_1" xmlns:x="&ns_extend;" xmlns:i="&ns_ai;" xmlns:graph="&ns_graphs;"
	 xmlns="http://www.w3.org/2000/svg" xmlns:xlink="http://www.w3.org/1999/xlink" xmlns:a="http://ns.adobe.com/AdobeSVGViewerExtensions/3.0/"
	 x="0px" y="0px" width="500px" height="400px" viewBox="0 0 500 400" enable-background="new 0 0 500 400" xml:space="preserve">
<metadata>
	<sfw  xmlns="&ns_sfw;">
		<slices></slices>
		<sliceSourceBounds  width="472.504" height="394.293" y="-398" x="12.804" bottomLeftOrigin="true"></sliceSourceBounds>
	</sfw>
</metadata>
<g>
	<g>
		<path fill-rule="evenodd" clip-rule="evenodd" fill="#18A8D5" d="M14.352,190.848c0-19.58,0-39.163,0-58.744
			C91.788,89.381,169.223,46.659,246.658,3.936c1.78,0,3.561,0,5.341,0c21.615,11.75,43.277,23.422,64.839,35.268
			c47.169,25.915,94.062,52.345,141.546,77.665c17.589,9.379,30.858,19.398,25.859,42.228c-1.484,6.782-0.016,14.18-0.171,21.289
			c-0.274,12.587-6.323,17.056-16.606,10.665c-12.661-7.867-12.46-1.186-12.432,8.529c0.175,59.584,0.046,119.168,0.137,178.752
			c0.011,6.258-0.308,12.342-2.908,18.123c-135.289,0-270.579,0-405.868,0c-2.947-6.154-2.911-12.711-2.903-19.346
			c0.069-59.777-0.012-119.557,0.096-179.333c0.016-8.073-0.738-14.378-10.514-7.343C26.672,195.036,20.643,193.31,14.352,190.848z
			 M249.368,380.895c58.236,0,116.472-0.244,174.705,0.23c10.313,0.084,13.469-2.469,13.362-13.16
			c-0.572-57.342-0.774-114.695-0.015-172.032c0.195-14.678-1.021-26.016-17.255-30.848c-5.78-1.721-10.888-5.716-16.29-8.691
			c-49.066-27.025-98.175-53.969-147.123-81.203c-5.355-2.98-9.667-3.21-14.768-0.047c-6.368,3.95-12.974,7.523-19.544,11.137
			c-50.631,27.87-101.185,55.88-152.034,83.341c-6.449,3.484-9.037,7.085-9.013,14.235c0.205,61.793,0.321,123.584-0.051,185.375
			c-0.056,9.363,2.722,11.902,11.986,11.84C132.006,380.674,190.688,380.869,249.368,380.895z M32.552,152.55
			c0.065,19.604,0.69,20.23,11.783,14.076c65.693-36.436,131.44-72.775,197.092-109.287c5.721-3.181,10.652-2.934,16.231,0.156
			c47.878,26.522,95.85,52.877,143.753,79.352c17.783,9.828,35.346,20.063,53.306,29.555c2.84,1.499,6.979,5.497,10.597,1.596
			c5.08-5.479-1.03-29.104-7.882-32.77c-17.898-9.575-35.77-19.208-53.555-28.994c-49.177-27.054-98.346-54.124-147.384-81.43
			c-4.837-2.694-8.758-3.22-13.577-0.545C176.854,60.915,110.868,97.705,44.516,133.828
			C35.559,138.704,30.249,143.489,32.552,152.55z"/>
		<path fill-rule="evenodd" clip-rule="evenodd" fill="#FDFEFF" d="M450.264,396.453c2.601-5.781,2.919-11.865,2.908-18.123
			c-0.091-59.584,0.038-119.168-0.137-178.752c-0.028-9.715-0.229-16.396,12.432-8.529c10.283,6.392,16.332,1.922,16.606-10.665
			c0.155-7.108-1.313-14.506,0.171-21.289c4.999-22.83-8.271-32.848-25.859-42.228c-47.484-25.32-94.377-51.75-141.546-77.665
			C293.277,27.357,271.615,15.686,250,3.936c75.21,0,150.42,0.154,225.629-0.227c7.971-0.042,9.59,1.609,9.569,9.573
			c-0.317,124.609-0.317,249.217,0,373.826c0.021,7.963-1.534,10.375-9.588,9.537C467.244,395.777,458.718,396.453,450.264,396.453z
			"/>
		<path fill-rule="evenodd" clip-rule="evenodd" fill="#FDFEFF" d="M246.658,3.936C169.223,46.659,91.788,89.381,14.352,132.104
			c0-39.904,0.285-79.813-0.245-119.712c-0.104-7.807,2.105-8.665,9.083-8.639C97.679,4.048,172.169,3.936,246.658,3.936z"/>
		<path fill-rule="evenodd" clip-rule="evenodd" fill="#FDFEFF" d="M14.352,190.848c6.291,2.462,12.32,4.188,18.722-0.417
			c9.776-7.035,10.529-0.73,10.514,7.343c-0.108,59.777-0.027,119.556-0.096,179.333c-0.008,6.635-0.043,13.191,2.903,19.346
			c-10.681,0-25.53,4.166-30.87-1.174c-5.341-5.34-1.173-20.188-1.173-30.869C14.352,306.557,14.352,248.703,14.352,190.848z"/>
		<path fill-rule="evenodd" clip-rule="evenodd" fill="#FDFEFF" d="M249.368,380.883c-58.68-0.014-117.361-0.209-176.039,0.189
			c-9.264,0.063-12.042-2.477-11.986-11.84c0.372-61.791,0.255-123.582,0.051-185.375c-0.023-7.15,2.564-10.751,9.013-14.235
			c50.849-27.461,101.403-55.472,152.034-83.341c6.57-3.614,13.176-7.187,19.544-11.137c5.101-3.163,9.412-2.934,14.768,0.047
			c48.948,27.234,98.057,54.178,147.123,81.203c5.402,2.976,10.51,6.97,16.29,8.691c16.234,4.832,17.45,16.169,17.255,30.848
			c-0.76,57.336-0.558,114.69,0.015,172.032c0.106,10.691-3.05,13.244-13.362,13.16C365.84,380.65,307.604,380.895,249.368,380.883z
			 M258.635,177.406c-27.189,0-46.797-0.936-66.28,0.216c-29.949,1.773-50.432,19.244-53.823,45.293
			c-0.914,7.02-2.929,10.332-9.612,13.217c-10.803,4.656-19.385,12.018-19.609,25.73c-0.208,12.707,5.823,21.104,16.559,26.365
			c18.591,9.111,13.175,34.387,30.282,44.398c0.413,0.24,0.188,1.697,0.142,2.58c-0.388,7.582,1.647,14.246,10.542,13.318
			c9.002-0.939,21.915,6.592,25.515-8.703c1.421-6.035,4.265-6.619,9.145-6.609c31.557,0.08,63.114,0.125,94.67-0.09
			c6.217-0.043,8.441,1.721,10.637,8.248c3.646,10.85,14.671,6.889,23.047,7.451c6.764,0.453,14.734-2.568,14.451-8.533
			c-0.53-11.152,6.431-17.1,12.174-23.869c3.945-4.646,6.864-9.301,6.631-15.117c-0.282-7.07,3.193-10.578,9.271-12.531
			c12.677-4.078,16.936-14.713,16.928-26.01c-0.008-11.318-4.521-21.748-17.059-25.918c-5.278-1.754-8.293-4.469-9.193-11.105
			c-3.065-22.584-16.84-37.021-37.979-44.402C300.854,172.877,275.656,179.153,258.635,177.406z"/>
		<path fill-rule="evenodd" clip-rule="evenodd" fill="#F7FCFD" d="M32.552,152.55c-2.303-9.062,3.007-13.846,11.964-18.722
			c66.352-36.124,132.338-72.914,198.399-109.569c4.819-2.675,8.74-2.149,13.577,0.545c49.038,27.307,98.207,54.376,147.384,81.43
			c17.785,9.787,35.656,19.419,53.555,28.994c6.852,3.666,12.962,27.291,7.882,32.77c-3.617,3.901-7.757-0.097-10.597-1.596
			c-17.96-9.492-35.522-19.727-53.306-29.555c-47.903-26.475-95.875-52.83-143.753-79.352c-5.579-3.09-10.51-3.337-16.231-0.156
			C175.775,93.851,110.028,130.19,44.334,166.626C33.242,172.78,32.617,172.155,32.552,152.55z"/>
		<path fill-rule="evenodd" clip-rule="evenodd" fill="#18A8D5" d="M258.635,177.406c17.021,1.747,42.219-4.529,66.439,3.93
			c21.139,7.382,34.913,21.818,37.979,44.402c0.9,6.637,3.915,9.352,9.193,11.105c12.538,4.17,17.051,14.6,17.059,25.918
			c0.008,11.297-4.251,21.932-16.928,26.01c-6.078,1.953-9.554,5.461-9.271,12.531c0.233,5.816-2.686,10.471-6.631,15.117
			c-5.743,6.77-12.704,12.717-12.174,23.869c0.283,5.965-7.688,8.986-14.451,8.533c-8.376-0.563-19.4,3.398-23.047-7.451
			c-2.195-6.527-4.42-8.291-10.637-8.248c-31.556,0.215-63.113,0.17-94.67,0.09c-4.88-0.01-7.724,0.574-9.145,6.609
			c-3.6,15.295-16.513,7.764-25.515,8.703c-8.895,0.928-10.93-5.736-10.542-13.318c0.046-0.883,0.271-2.34-0.142-2.58
			c-17.107-10.012-11.691-35.287-30.282-44.398c-10.736-5.262-16.767-13.658-16.559-26.365c0.224-13.713,8.806-21.074,19.609-25.73
			c6.683-2.885,8.698-6.197,9.612-13.217c3.391-26.049,23.874-43.52,53.823-45.293C211.837,176.47,231.445,177.406,258.635,177.406z
			 M251.764,192.113c0-0.076,0-0.149,0-0.225c-16.424,0-32.845,0.06-49.266-0.018c-13.744-0.065-26.161,3.658-36.911,12.413
			c-9.747,7.939-12.941,27.129-4.597,30.426c15.368,6.064,21.706,17.838,24.225,32.904c1.201,7.188,5.68,11.004,12.818,11.027
			c34.172,0.123,68.35,0.326,102.518-0.111c8.262-0.107,16.051-3.15,15.847-13.898c-0.298-15.631,8.854-24.902,22.091-29.617
			c9.848-3.508,7.877-9.072,5.146-15.289c-8.62-19.625-24.314-27.904-45.269-27.648
			C282.832,192.265,267.296,192.113,251.764,192.113z M249.454,318.451c22.692,0,45.392,0.293,68.08-0.086
			c20.634-0.342,27.686-7.543,27.692-28.088c0.001-7.172,0.604-11.734,9.646-11.57c10.562,0.189,16.982-5.982,16.571-16.625
			c-0.354-9.168-6.145-14.592-15.687-14.74c-10.527-0.164-19.359,2.102-21.317,14.824c-3.53,22.941-12.936,31.439-37.147,31.855
			c-31.582,0.539-63.217,1-94.761-0.242c-26.642-1.049-31.418-6.053-38.417-32.629c-2.747-10.426-9.006-15.152-19.33-13.881
			c-8.707,1.07-17.032,3.902-17.695,14.613c-0.71,11.479,7.304,16.227,16.792,16.533c9.829,0.322,12.502,3.25,12.13,13.242
			c-0.792,21.281,5.144,26.609,26.697,26.752C204.955,318.553,227.204,318.441,249.454,318.451z"/>
		<path fill-rule="evenodd" clip-rule="evenodd" fill="#FDFEFF" d="M251.764,192.113c15.532,0,31.068,0.151,46.601-0.037
			c20.954-0.256,36.648,8.023,45.269,27.648c2.731,6.217,4.702,11.781-5.146,15.289c-13.237,4.715-22.389,13.986-22.091,29.617
			c0.204,10.748-7.585,13.791-15.847,13.898c-34.168,0.438-68.346,0.234-102.518,0.111c-7.138-0.023-11.617-3.84-12.818-11.027
			c-2.519-15.066-8.856-26.84-24.225-32.904c-8.344-3.297-5.149-22.486,4.597-30.426c10.75-8.754,23.167-12.478,36.911-12.413
			c16.421,0.078,32.842,0.018,49.266,0.018C251.764,191.964,251.764,192.038,251.764,192.113z"/>
		<path fill-rule="evenodd" clip-rule="evenodd" fill="#F7FCFD" d="M249.454,318.445c-22.25-0.004-44.499,0.107-66.746-0.035
			c-21.553-0.143-27.489-5.471-26.697-26.752c0.372-9.992-2.301-12.92-12.13-13.242c-9.488-0.307-17.502-5.055-16.792-16.533
			c0.663-10.711,8.988-13.543,17.695-14.613c10.324-1.271,16.583,3.455,19.33,13.881c7,26.576,11.776,31.58,38.417,32.629
			c31.544,1.242,63.179,0.781,94.761,0.242c24.212-0.416,33.617-8.914,37.147-31.855c1.958-12.723,10.79-14.988,21.317-14.824
			c9.542,0.148,15.333,5.572,15.687,14.74c0.411,10.643-6.01,16.814-16.571,16.625c-9.043-0.164-9.646,4.398-9.646,11.57
			c-0.007,20.545-7.059,27.746-27.692,28.088C294.846,318.744,272.146,318.451,249.454,318.445z"/>
	</g>
</g>
</svg>
